<?xml version="1.0" encoding="UTF-8"?>
<svg xmlns="http://www.w3.org/2000/svg" xmlns:xlink="http://www.w3.org/1999/xlink" width="26px" height="28px" viewBox="0 0 26 28" version="1.1">
<g id="surface1">
<path style=" stroke:none;fill-rule:nonzero;fill:rgb(5.098039%,25.098039%,40%);fill-opacity:1;" d="M 5.042969 23.761719 C 5 23.742188 4.945312 23.683594 4.921875 23.636719 C 4.890625 23.574219 4.871094 22.449219 4.859375 19.917969 L 4.839844 16.28125 L 11.472656 16.28125 L 11.796875 16.390625 C 12.589844 16.644531 14.039062 16.609375 14.710938 16.324219 C 14.757812 16.300781 14.910156 16.238281 15.054688 16.183594 C 16.261719 15.695312 17.199219 14.648438 17.632812 13.300781 C 17.796875 12.808594 17.816406 12.636719 17.820312 11.964844 C 17.820312 11.136719 17.769531 10.867188 17.496094 10.140625 C 17.335938 9.722656 16.980469 9.195312 16.597656 8.792969 C 15.976562 8.140625 15.273438 7.710938 14.480469 7.496094 C 13.734375 7.296875 13.179688 7.25 12.585938 7.339844 C 12.339844 7.375 12.105469 7.421875 12.066406 7.441406 C 12.003906 7.476562 11.695312 7.5625 11.570312 7.578125 C 11.527344 7.585938 11.511719 7.484375 11.5 7.152344 C 11.488281 6.691406 11.449219 6.570312 11.242188 6.355469 C 11.082031 6.1875 10.898438 6.125 10.53125 6.125 C 10.023438 6.125 9.703125 6.339844 9.621094 6.730469 L 9.589844 6.867188 L 4.929688 6.867188 L 4.917969 5.621094 C 4.902344 4.269531 4.90625 4.222656 5.128906 4.179688 C 5.351562 4.136719 13.917969 4.148438 14.523438 4.195312 C 14.832031 4.21875 15.203125 4.265625 15.347656 4.296875 C 15.492188 4.328125 15.734375 4.386719 15.890625 4.425781 C 16.515625 4.5625 17.132812 4.820312 17.839844 5.222656 C 19.121094 5.949219 20.207031 7.0625 20.835938 8.285156 C 21.246094 9.085938 21.429688 9.578125 21.570312 10.300781 C 21.621094 10.550781 21.683594 10.8125 21.710938 10.890625 C 21.769531 11.082031 21.773438 12.546875 21.714844 12.808594 C 21.683594 12.921875 21.625 13.199219 21.578125 13.425781 C 21.488281 13.816406 21.359375 14.277344 21.28125 14.453125 C 21.261719 14.496094 21.1875 14.675781 21.117188 14.84375 C 20.894531 15.363281 20.484375 16.035156 20.054688 16.554688 C 19.777344 16.886719 19.152344 17.515625 18.910156 17.695312 C 18.476562 18.019531 18.046875 18.308594 17.816406 18.425781 C 17.496094 18.585938 17.359375 18.714844 17.359375 18.867188 C 17.359375 19.003906 17.511719 19.179688 18.492188 20.183594 C 18.527344 20.222656 18.675781 20.382812 18.820312 20.539062 C 18.96875 20.699219 19.210938 20.957031 19.359375 21.113281 C 19.511719 21.273438 19.832031 21.613281 20.074219 21.875 C 20.316406 22.132812 20.625 22.460938 20.761719 22.605469 C 21.066406 22.921875 21.113281 23.015625 21.117188 23.34375 C 21.117188 23.574219 21.105469 23.617188 21.007812 23.703125 L 20.894531 23.804688 L 18.574219 23.804688 C 15.921875 23.800781 16.132812 23.832031 15.796875 23.414062 C 15.6875 23.28125 15.453125 23.019531 15.277344 22.839844 C 14.9375 22.488281 14.507812 22.027344 14.273438 21.765625 C 14.195312 21.679688 13.75 21.199219 13.296875 20.703125 C 12.835938 20.203125 12.152344 19.457031 11.773438 19.035156 C 10.730469 17.886719 10.597656 17.761719 10.441406 17.761719 C 10.355469 17.761719 10.261719 17.804688 10.175781 17.882812 L 10.035156 18 L 10.015625 20.8125 C 10.003906 22.359375 9.988281 23.625 9.984375 23.632812 C 9.976562 23.636719 9.910156 23.679688 9.839844 23.722656 C 9.707031 23.800781 9.625 23.804688 7.40625 23.804688 C 5.933594 23.800781 5.085938 23.789062 5.042969 23.761719 Z M 5.042969 23.761719 "/>
<path style=" stroke:none;fill-rule:nonzero;fill:rgb(7.45098%,36.862745%,58.823529%);fill-opacity:1;" d="M 12.632812 15.101562 C 12.617188 15.089844 12.523438 15.0625 12.429688 15.042969 C 12.328125 15.027344 12.144531 14.988281 12.015625 14.949219 C 11.289062 14.75 10.476562 14.015625 10.171875 13.292969 C 9.894531 12.636719 9.78125 11.921875 9.886719 11.515625 C 9.910156 11.433594 9.957031 11.242188 9.996094 11.082031 C 10.03125 10.925781 10.113281 10.683594 10.175781 10.546875 C 10.382812 10.074219 10.976562 9.417969 11.378906 9.210938 C 11.492188 9.15625 11.589844 9.09375 11.601562 9.082031 C 11.648438 9.019531 12.101562 8.875 12.433594 8.820312 C 13.238281 8.679688 13.976562 8.769531 14.644531 9.097656 C 15.015625 9.28125 15.140625 9.367188 15.441406 9.664062 C 15.765625 9.980469 16.054688 10.390625 16.207031 10.75 C 16.402344 11.214844 16.5 12.078125 16.402344 12.390625 C 16.378906 12.460938 16.320312 12.675781 16.273438 12.871094 C 16.222656 13.0625 16.152344 13.285156 16.109375 13.363281 C 15.882812 13.796875 15.414062 14.34375 15.09375 14.542969 C 15 14.601562 14.910156 14.660156 14.898438 14.679688 C 14.835938 14.773438 14.203125 14.996094 13.882812 15.035156 C 13.800781 15.046875 13.71875 15.074219 13.707031 15.09375 C 13.679688 15.136719 12.675781 15.144531 12.632812 15.101562 Z M 13.046875 13.121094 C 13.1875 13.035156 13.234375 12.980469 13.636719 12.421875 C 13.792969 12.207031 13.976562 12 14.042969 11.964844 C 14.113281 11.929688 14.320312 11.855469 14.503906 11.800781 C 14.960938 11.667969 15.007812 11.648438 15.128906 11.46875 C 15.265625 11.257812 15.261719 11.097656 15.109375 10.871094 C 14.871094 10.535156 14.570312 10.484375 14 10.683594 C 13.386719 10.898438 13.28125 10.972656 12.871094 11.460938 C 12.222656 12.226562 12.144531 12.359375 12.144531 12.636719 C 12.144531 12.828125 12.277344 13.050781 12.449219 13.144531 C 12.585938 13.222656 12.894531 13.210938 13.046875 13.121094 Z M 13.046875 13.121094 "/>
<path style=" stroke:none;fill-rule:nonzero;fill:rgb(7.45098%,36.862745%,58.823529%);fill-opacity:1;" d="M 4.476562 14.726562 C 4.449219 14.710938 4.398438 14.628906 4.367188 14.546875 C 4.3125 14.417969 4.300781 13.984375 4.296875 11.523438 C 4.292969 9.40625 4.308594 8.621094 4.339844 8.542969 C 4.453125 8.300781 4.414062 8.304688 7.429688 8.304688 L 10.183594 8.304688 L 9.789062 8.6875 C 9.371094 9.097656 9.105469 9.464844 8.867188 9.976562 C 8.785156 10.152344 8.703125 10.328125 8.679688 10.367188 C 8.664062 10.402344 8.601562 10.585938 8.546875 10.777344 C 8.460938 11.085938 8.449219 11.207031 8.449219 11.921875 C 8.457031 12.625 8.464844 12.765625 8.546875 13.070312 C 8.601562 13.261719 8.675781 13.488281 8.722656 13.585938 C 8.765625 13.675781 8.839844 13.847656 8.890625 13.957031 C 8.980469 14.171875 9.292969 14.679688 9.371094 14.726562 C 9.421875 14.769531 4.539062 14.769531 4.476562 14.726562 Z M 6.761719 11.738281 C 7.125 11.558594 7.300781 11.226562 7.210938 10.882812 C 7.078125 10.367188 6.539062 10.097656 6.097656 10.324219 C 5.542969 10.609375 5.433594 11.316406 5.894531 11.644531 C 6.222656 11.878906 6.433594 11.898438 6.761719 11.738281 Z M 6.761719 11.738281 "/>
</g>
</svg>
