<?xml version="1.0" encoding="UTF-8"?>
<svg xmlns="http://www.w3.org/2000/svg" id="Layer_1" data-name="Layer 1" viewBox="0 0 24 24">
  <path d="m22.811.083c-2.731.299-11.044,1.209-17.545,7.729-1.539,1.543-2.362,3.68-2.257,5.861.077,1.602.625,3.093,1.573,4.331L.069,22.518l1.414,1.414,4.506-4.507c1.349,1.054,2.981,1.571,4.633,1.57,2.14,0,4.31-.867,5.927-2.556,4.121-4.302,6.668-10.271,7.366-17.263l.123-1.228-1.227.134Zm-7.707,16.974c-2.095,2.187-5.396,2.566-7.687.94l2.996-2.996h6.427c-.54.725-1.12,1.412-1.737,2.057Zm-2.69-4.057l3-3h4.275c-.446,1.05-.952,2.051-1.516,3h-5.759Zm8.034-5h-5.862l-8.571,8.572c-.605-.874-.955-1.9-1.008-2.996-.078-1.62.533-3.207,1.675-4.353,5.221-5.236,11.791-6.562,15.097-7.004-.276,2.036-.723,3.969-1.331,5.78Z"/>
</svg>
